<?xml version="1.0" encoding="UTF-8" standalone="no"?>
<!-- Created with Inkscape (http://www.inkscape.org/) -->

<svg
   width="400"
   height="400"
   viewBox="0 0 105.83333 105.83333"
   version="1.1"
   id="svg5"
   xml:space="preserve"
   inkscape:version="1.2.1 (9c6d41e410, 2022-07-14)"
   sodipodi:docname="calendar.svg"
   inkscape:export-filename="calendar_with_back.png"
   inkscape:export-xdpi="96"
   inkscape:export-ydpi="96"
   xmlns:inkscape="http://www.inkscape.org/namespaces/inkscape"
   xmlns:sodipodi="http://sodipodi.sourceforge.net/DTD/sodipodi-0.dtd"
   xmlns="http://www.w3.org/2000/svg"
   xmlns:svg="http://www.w3.org/2000/svg"><sodipodi:namedview
     id="namedview7"
     pagecolor="#ffffff"
     bordercolor="#000000"
     borderopacity="0.25"
     inkscape:showpageshadow="2"
     inkscape:pageopacity="0.0"
     inkscape:pagecheckerboard="0"
     inkscape:deskcolor="#d1d1d1"
     inkscape:document-units="px"
     showgrid="false"
     inkscape:zoom="1.0129245"
     inkscape:cx="-34.059794"
     inkscape:cy="111.06455"
     inkscape:window-width="1920"
     inkscape:window-height="991"
     inkscape:window-x="-9"
     inkscape:window-y="-9"
     inkscape:window-maximized="1"
     inkscape:current-layer="layer2" /><defs
     id="defs2" /><g
     inkscape:groupmode="layer"
     id="layer7"
     inkscape:label="背景"><rect
       style="opacity:1;fill:#c5b659;fill-opacity:1;stroke:none;stroke-width:1.05833;stroke-linecap:round;stroke-linejoin:round;stroke-dasharray:none;stroke-opacity:1"
       id="rect3796"
       width="105.83333"
       height="105.83333"
       x="0"
       y="0" /></g><g
     inkscape:groupmode="layer"
     id="layer6"
     inkscape:label="ひも"
     sodipodi:insensitive="true"><path
       style="opacity:1;fill:#ffffff;fill-opacity:1;stroke:#000000;stroke-width:1.05833;stroke-linecap:round;stroke-linejoin:round;stroke-dasharray:none;stroke-opacity:1"
       d="M 41.440548,20.409515 72.100993,2.862873 98.143904,21.333022 102.02264,21.702425 72.285696,1.0158582 38.300621,20.224813 Z"
       id="path3674" /><circle
       style="opacity:1;fill:#e4cb06;fill-opacity:1;stroke:#000000;stroke-width:1.05833;stroke-linecap:round;stroke-linejoin:round;stroke-dasharray:none;stroke-opacity:1"
       id="path2630"
       cx="71.687263"
       cy="3.6247668"
       r="2.6550839" /></g><g
     inkscape:groupmode="layer"
     id="layer5"
     inkscape:label="側面"
     sodipodi:insensitive="true"><path
       style="opacity:1;fill:#f15157;fill-opacity:1;stroke:#000000;stroke-width:1.05833;stroke-linecap:round;stroke-linejoin:round;stroke-dasharray:none"
       d="m 99.520001,16.456063 6.007769,8.901306 v 7.424154 h -7.575013 z"
       id="path2020"
       sodipodi:nodetypes="ccccc" /><path
       style="opacity:1;fill:#ffffff;fill-opacity:1;stroke:#000000;stroke-width:1.05833;stroke-linecap:round;stroke-linejoin:round;stroke-dasharray:none"
       d="m 101.15254,97.36504 0.49506,-1.262833 0.87629,-0.435015 0.45711,-1.240734 1.08988,-0.477369 V 25.86628 l -4.537375,-6.791391 v 80.582468 z"
       id="path1900"
       sodipodi:nodetypes="ccccccccc" /><path
       style="opacity:1;fill:none;fill-opacity:1;stroke:#d9d9d9;stroke-width:0.529167;stroke-linecap:round;stroke-linejoin:round;stroke-dasharray:none;stroke-opacity:1"
       d="M 101.12407,42.61987 V 90.826958"
       id="path2379" /><path
       style="opacity:1;fill:none;fill-opacity:1;stroke:#d9d9d9;stroke-width:0.529167;stroke-linecap:round;stroke-linejoin:round;stroke-dasharray:none;stroke-opacity:1"
       d="m 102.0802,34.229512 v 42.26455"
       id="path2543" /><path
       style="opacity:1;fill:none;fill-opacity:1;stroke:#d9d9d9;stroke-width:0.529167;stroke-linecap:round;stroke-linejoin:round;stroke-dasharray:none;stroke-opacity:1"
       d="M 102.87874,47.786297 V 86.630213"
       id="path2545" /></g><g
     inkscape:groupmode="layer"
     id="layer4"
     inkscape:label="ミニダム"
     sodipodi:insensitive="true"><rect
       style="opacity:1;fill:#fed8cb;fill-opacity:1;stroke:#000000;stroke-width:1.05833;stroke-linecap:round;stroke-linejoin:round;stroke-dasharray:none"
       id="rect1673"
       width="70.186569"
       height="79.329292"
       x="29.73694"
       y="20.409517" /><path
       style="opacity:1;fill:#fed8cb;fill-opacity:1;stroke:#000000;stroke-width:1.05833;stroke-linecap:round;stroke-linejoin:round;stroke-dasharray:none"
       d="M 95.146205,44.672824 H 35.857026"
       id="path1731"
       sodipodi:nodetypes="cc" /><circle
       style="opacity:1;fill:#000000;fill-opacity:1;stroke:none;stroke-width:1.05833;stroke-linecap:round;stroke-linejoin:round;stroke-dasharray:none"
       id="path1787"
       cx="85.307152"
       cy="60.212685"
       r="5.9104481" /><path
       style="opacity:1;fill:#f17cb1;fill-opacity:1;stroke:#000000;stroke-width:1.05833;stroke-linecap:round;stroke-linejoin:round;stroke-dasharray:none"
       d="m 58.919776,71.479478 c 8.126333,0.380922 11.42465,2.945796 11.266789,8.865671 -0.184698,6.926306 -7.942164,6.926306 -11.451492,6.833955 -3.323476,-0.08746 -9.327424,-0.738806 -9.142721,-7.018657 0.1847,-6.279851 5.632836,-8.854153 9.327424,-8.680969 z"
       id="path1789"
       sodipodi:nodetypes="sssss" /><path
       style="opacity:1;fill:none;fill-opacity:1;stroke:#000000;stroke-width:1.05833;stroke-linecap:round;stroke-linejoin:round;stroke-dasharray:none"
       d="M 54.453149,81.453357 H 61.90879"
       id="path1840" /><path
       style="opacity:1;fill:none;fill-opacity:1;stroke:#f17cb1;stroke-width:2.11667;stroke-linecap:round;stroke-linejoin:round;stroke-dasharray:none"
       d="m 90.596082,74.896453 c -6.095151,-0.646452 -9.814956,0.326463 -10.712688,5.263994 -0.923507,5.07929 2.124069,7.57276 6.1875,7.849814 4.426407,0.301802 6.926307,-0.738807 7.111008,-4.802241 0.184703,-4.063431 -5.127956,-5.133791 -6.741604,-3.87873 -2.493471,1.939367 0.277051,3.69403 0.277051,3.69403"
       id="path1842"
       sodipodi:nodetypes="cssssc" /></g><g
     inkscape:groupmode="layer"
     id="layer3"
     inkscape:label="イケダム"
     sodipodi:insensitive="true"><path
       style="fill:#fee5cc;fill-opacity:1;stroke:#000000;stroke-width:1.05833;stroke-linecap:round;stroke-linejoin:round;stroke-dasharray:none"
       d="M 29.255222,28.340997 C 24.049798,47.39293 9.0121567,64.40426 -7.4444095,79.015225 31.649791,92.73699 41.057258,86.450429 52.633281,74.96651 65.447009,63.737902 81.170925,47.845599 98.083363,28.079789 Z"
       id="path1292"
       sodipodi:nodetypes="ccccc" /><path
       style="opacity:1;fill:none;fill-opacity:1;stroke:#000000;stroke-width:1.05833;stroke-linecap:round;stroke-linejoin:round;stroke-dasharray:none"
       d="m 27.426771,41.009554 c 0,0 17.217793,1.931185 25.728925,2.612075 6.530183,0.522414 10.797725,2.207733 14.49701,-1.959057 3.366115,-3.791516 -3.623007,-6.650919 -10.709502,-7.183203 -6.523552,-0.49 -10.840106,-1.175431 -13.582782,2.612076 -2.742679,3.787505 2.9877,5.837889 9.795274,6.530184 7.705618,0.783621 29.908243,1.959054 29.908243,1.959054"
       id="path1503"
       sodipodi:nodetypes="csssssc" /><circle
       style="opacity:1;fill:#000000;fill-opacity:1;stroke:none;stroke-width:1.05833;stroke-linecap:round;stroke-linejoin:round;stroke-dasharray:none"
       id="path1557"
       cx="27.165564"
       cy="49.759998"
       r="0.78362203" /><path
       style="opacity:1;fill:#f17cb1;fill-opacity:1;stroke:#000000;stroke-width:1.05833;stroke-linecap:round;stroke-linejoin:round;stroke-dasharray:none"
       d="m 16.807836,63.629664 c 0.31006,-0.916814 15.401692,-5.683049 17.45429,-5.079291 1.609183,0.47333 1.796286,3.261742 3.416977,3.69403 1.519817,0.405382 5.49481,-1.848852 7.942166,-1.477614 1.69762,0.257511 13.30804,8.228518 12.46735,9.050373 C 51.183297,76.567777 41.096081,79.975746 30.383396,77.389925 19.670709,74.804105 15.976328,66.088343 16.807836,63.629664 Z"
       id="path1613"
       sodipodi:nodetypes="sssssss" /><path
       style="opacity:1;fill:none;fill-opacity:1;stroke:#000000;stroke-width:1.05833;stroke-linecap:round;stroke-linejoin:round;stroke-dasharray:none"
       d="m 16.900186,63.537313 41.096083,6.095148"
       id="path1669" /><path
       style="opacity:1;fill:#efefef;fill-opacity:1;stroke:#000000;stroke-width:1.05833;stroke-linecap:round;stroke-linejoin:round;stroke-dasharray:none"
       d="M 98.736381,27.165564 C 86.741313,48.202802 70.036429,69.282806 40.075029,84.40744 47.11361,81.344665 51.676849,77.144373 45.580683,66.477271 70.377946,57.554928 83.065842,42.510416 98.736381,27.165564 Z"
       id="path1447"
       sodipodi:nodetypes="cccc" /></g><g
     inkscape:groupmode="layer"
     id="layer2"
     inkscape:label="ホルダー"
     style="display:inline"
     sodipodi:insensitive="true"><path
       style="fill:#ffffff;fill-opacity:1;stroke:#000000;stroke-width:1.05833;stroke-linecap:round;stroke-linejoin:round;stroke-dasharray:none"
       d="m 56.486091,27.426771 4.440523,3.983414 3.918111,-1.306037 1.306037,1.306037 1.306036,-0.979528 1.763151,0.653019 3.722204,-0.587717 1.632545,1.044829 2.677377,-0.71832 0.71832,1.044829 1.110131,-1.044829 1.11013,1.175433 2.154963,-1.371338 4.309919,0.195905 2.024359,1.371338 2.807978,-1.306036 0.587717,1.240735 1.697847,-0.914226 1.175435,1.306036 4.244618,-4.048715 z"
       id="path1288" /><path
       style="fill:#ffffff;fill-opacity:1;stroke:#000000;stroke-width:1.05833;stroke-linecap:round;stroke-linejoin:round;stroke-dasharray:none"
       d="m 28.928713,28.210393 -1.175432,2.807981 5.811863,-2.742679 0.979528,2.938584 3.722206,-2.677377 0.914225,2.350868 2.024356,-1.175432 2.350868,1.697847 6.268976,-4.114017 z"
       id="path1232" /><rect
       style="fill:#ed1c24;fill-opacity:1;stroke:#000000;stroke-width:1.05833;stroke-linecap:round;stroke-linejoin:round;stroke-dasharray:none"
       id="rect414"
       width="70.787193"
       height="12.146142"
       x="28.863415"
       y="16.456062" /></g></svg>
